<svg width="17" height="16" viewBox="0 0 17 16" fill="none" xmlns="http://www.w3.org/2000/svg">
<path d="M14.6879 12.2823C14.456 12.818 14.1815 13.3111 13.8635 13.7645C13.43 14.3825 13.0751 14.8104 12.8015 15.0479C12.3775 15.4379 11.9232 15.6376 11.4367 15.6489C11.0875 15.6489 10.6663 15.5495 10.176 15.3479C9.68413 15.1473 9.2321 15.0479 8.81877 15.0479C8.38529 15.0479 7.92038 15.1473 7.4231 15.3479C6.92507 15.5495 6.52386 15.6546 6.2171 15.665C5.75059 15.6849 5.28559 15.4795 4.82144 15.0479C4.52519 14.7895 4.15465 14.3466 3.71075 13.7191C3.23448 13.049 2.84293 12.2719 2.53618 11.386C2.20766 10.4291 2.04297 9.50253 2.04297 8.60546C2.04297 7.57788 2.26501 6.6916 2.70976 5.94891C3.05929 5.35234 3.52429 4.88176 4.10628 4.53629C4.68827 4.19083 5.3171 4.01479 5.99431 4.00353C6.36485 4.00353 6.85077 4.11814 7.45462 4.3434C8.05677 4.56942 8.4434 4.68404 8.61291 4.68404C8.73965 4.68404 9.16916 4.55002 9.89728 4.28283C10.5858 4.03504 11.167 3.93245 11.643 3.97286C12.9331 4.07697 13.9023 4.58551 14.5468 5.5017C13.3931 6.20076 12.8224 7.17989 12.8337 8.43595C12.8441 9.41432 13.199 10.2285 13.8966 10.8749C14.2127 11.1749 14.5658 11.4068 14.9585 11.5715C14.8734 11.8186 14.7834 12.0552 14.6879 12.2823ZM11.7292 0.639762C11.7292 1.4066 11.449 2.1226 10.8906 2.78532C10.2167 3.57316 9.40161 4.02842 8.5177 3.95658C8.50643 3.86458 8.4999 3.76776 8.4999 3.66601C8.4999 2.92985 8.82038 2.142 9.38949 1.49783C9.67362 1.17168 10.035 0.900486 10.4732 0.684151C10.9105 0.471043 11.3241 0.35319 11.7131 0.333008C11.7244 0.435523 11.7292 0.538044 11.7292 0.639752V0.639762Z" fill="white"/>
</svg>
