<svg width="16" height="16" viewBox="0 0 16 16" fill="none" xmlns="http://www.w3.org/2000/svg">
<rect width="16" height="16" fill="white"/>
<path fill-rule="evenodd" clip-rule="evenodd" d="M15.36 8.17365C15.36 7.63001 15.3112 7.10729 15.2206 6.60547H8V9.57107H12.1261C11.9483 10.5294 11.4082 11.3414 10.5962 11.885V13.8087H13.0739C14.5236 12.474 15.36 10.5085 15.36 8.17365Z" fill="#4285F4"/>
<path fill-rule="evenodd" clip-rule="evenodd" d="M7.99965 15.6661C10.0696 15.6661 11.8051 14.9795 13.0736 13.8086L10.5959 11.885C9.90935 12.345 9.03117 12.6168 7.99965 12.6168C6.00283 12.6168 4.31268 11.2682 3.7098 9.45605H1.14844V11.4424C2.40995 13.948 5.00268 15.6661 7.99965 15.6661Z" fill="#34A853"/>
<path fill-rule="evenodd" clip-rule="evenodd" d="M3.7108 9.45634C3.55747 8.99634 3.47035 8.50497 3.47035 7.99967C3.47035 7.49437 3.55747 7.003 3.7108 6.543V4.55664H1.14944C0.630196 5.59164 0.333984 6.76255 0.333984 7.99967C0.333984 9.23679 0.630196 10.4077 1.14944 11.4427L3.7108 9.45634Z" fill="#FBBC05"/>
<path fill-rule="evenodd" clip-rule="evenodd" d="M7.99965 3.38225C9.12526 3.38225 10.1359 3.76907 10.9304 4.52877L13.1293 2.32983C11.8016 1.0927 10.0662 0.333008 7.99965 0.333008C5.00268 0.333008 2.40995 2.05104 1.14844 4.55664L3.7098 6.54301C4.31268 4.73089 6.00283 3.38225 7.99965 3.38225Z" fill="#EA4335"/>
</svg>
